<svg id="fast-company" xmlns="http://www.w3.org/2000/svg" width="221.748" height="33" viewBox="0 0 221.748 33">
  <path id="Path_123" data-name="Path 123" d="M525.956,10.275c0,4.456-.448,18.28-.448,18.28,0,2.675.9,3.862,3.415,3.862V33.6h-9.962V32.418c2.529,0,3.862-1.187,3.862-3.862l.9-22.59A3.369,3.369,0,0,0,520.3,3.436V2.4h7.579l8.026,21.1L544.08,2.4h6.839V3.436c-1.936,0-2.967.9-2.967,2.977l.9,21.851c0,3.269.593,4.164,3.269,4.164v1.187H540.675V32.428c2.228,0,3.269-.739,3.123-4.164,0,0-.448-15.313-.593-17.988l-5.5,15.157a57.349,57.349,0,0,0-2.082,6.538l-1.78.146c-.448-1.634-1.634-4.611-1.634-4.611S527.59,14.585,525.956,10.275Zm-9.369,23.485a7.34,7.34,0,0,0-1.78-.146c-1.187,0-3.269.593-5.8.593-9.661,0-16.792-5.8-16.792-16.5,0-9.067,6.693-16.052,16.948-16.052a20.6,20.6,0,0,1,7.287,1.333c.448-.448.593-.739,1.041-1.187h.9c-.146,1.634-.739,6.985-.739,6.985h-.9c-.593-3.123-2.228-5.2-7.433-5.2-6.246,0-11.889,4.9-11.889,13.971,0,10.254,5.8,14.71,12.19,14.71,4.164,0,6.693-2.374,8.328-5.351l1.041.448-2.4,6.4ZM488.5,8.193h-1.041c-.146-2.821-1.041-3.716-3.269-3.716h-4.31V27.816c0,3.862.739,4.611,3.269,4.611v1.187H472V32.428c2.529,0,3.269-.739,3.269-4.757V4.487h-4.31c-2.821,0-3.269.739-4.018,3.716H465.9l.739-6.693.739.146c.292.739.9.739,2.675.739h14.418c2.675,0,3.269,0,3.862-.9h.9Z" transform="translate(-420.574 -1.354)"/>
  <path id="Path_124" data-name="Path 124" d="M36.415,33a14.124,14.124,0,0,1-4.9-.739,8.348,8.348,0,0,1-2.529-1.041,8.064,8.064,0,0,0-1.041,1.333l-.9-.292.739-6.985,1.041.146c.593,3.269,2.821,5.652,7.433,5.652A6.022,6.022,0,0,0,42.2,24.828c0-2.675-1.041-4.018-4.611-6.693a27.594,27.594,0,0,1-3.123-2.082C31.2,13.971,29.118,11.6,29.118,7.734,29.118,3.279,32.835.3,37.738.3a11.287,11.287,0,0,1,5.2,1.187L43.984.3l.739.146-.739,6.392-1.041-.146c0-2.967-1.78-4.31-4.757-4.31-2.821,0-4.9,1.489-4.9,4.31,0,2.529,1.936,4.164,4.164,5.652,1.187.739,2.082,1.333,2.967,1.936,5.2,3.716,6.392,6.09,6.392,9.661.01,5.2-4,9.057-10.39,9.057ZM19.467,6.839H18.28c0-2.675-1.187-3.716-3.57-3.716H8.017V14.866h4.31c2.228,0,2.675-1.187,2.977-3.123h1.041V20.07H15.3c-.292-2.228-.739-3.123-3.123-3.123H8.017V26.91c0,3.716.9,4.164,3.269,4.164v1.187H0V31.074c2.821,0,3.269-.739,3.269-4.164V5.059c0-2.082-.9-2.977-3.269-2.977V1.041H15.459C18.134,1.041,18.728.9,19.175,0h1.041l-.749,6.839ZM179.846,8.62V26.453c0,3.862.885,4.611,3.269,4.611v1.187H165.574V31.064c1.343,0,2.529-.448,2.529-1.333a10.809,10.809,0,0,0-.448-2.675l-1.343-4.31h-9.807c-.146.593-1.936,5.5-1.936,6.839,0,1.187,1.343,1.489,2.228,1.489v1.187h-8.172V31.074c1.489,0,2.675-.146,3.716-3.269L159.922,3.58a2.249,2.249,0,0,0-2.082-1.489V1.051h6.693l8.026,25.412c.749,2.675,1.488,4.018,2.675,4.611,1.78-.593,2.228-1.187,2.228-4.611V5.059c-1.343-1.78-1.489-2.977-4.018-2.977V1.041h7.579L193.505,22.3V6.1c0-3.269-.739-4.018-3.269-4.018V1.041h16.646V2.082c-1.041,0-1.936.448-1.936,1.489a8.068,8.068,0,0,0,.593,2.374L210.3,16.2l4.611-9.962a5.443,5.443,0,0,0,.9-2.821c0-.9-.593-1.343-1.936-1.343V1.031h7.88V2.072c-1.936,0-3.123,1.78-4.008,3.862l-6.09,12.482v8.172c0,3.57.9,4.456,3.269,4.456v1.187h-11.3V31.045c2.374,0,3.269-.9,3.269-4.456V19.6L200.354,5.779c-1.187-2.675-1.634-3.269-2.374-3.716-1.489.593-1.936,1.634-1.936,4.018V28.972s.146,1.78.3,3.862l-1.936.146ZM161.264,7.131,157.1,20.654h8.62L161.264,7.131Z"/>
  <path id="Path_125" data-name="Path 125" d="M286.279,30.413h-2.228v6.392c0,3.269.885,4.018,3.415,4.018V42.01H276.025V40.823c2.374,0,3.269-.9,3.269-4.164V15.7c0-3.269-.9-3.862-3.269-3.862V10.8h8.62c8.318,0,13.221,2.529,13.221,9.359C297.866,27.29,291.921,30.413,286.279,30.413ZM284.79,12.872h-.739v15.3h1.333c4.9,0,7.433-2.228,7.433-7.88S290.589,12.872,284.79,12.872ZM234.4,36.056c-5.652,0-9.515-4.018-9.515-9.807a9.464,9.464,0,0,1,9.515-9.807c5.351,0,9.359,4.164,9.359,9.807A9.523,9.523,0,0,1,234.4,36.056Zm0-17.833c-3.862,0-5.2,3.716-5.2,8.026,0,4.018,1.187,8.026,5.2,8.026,3.862,0,5.049-4.018,5.049-8.172C239.454,22.085,237.975,18.223,234.4,18.223Zm-65.4,16.052V33.235c1.488,0,1.78-.448,1.78-.9a4.257,4.257,0,0,0-.3-1.489s-.3-1.187-.593-2.082h-5.8l-.593,1.936a4.5,4.5,0,0,0-.292,1.489c0,.593.593,1.041,1.489,1.041v1.041h-5.8V33.235c1.489,0,2.082-.448,2.675-2.082l4.456-13.377a1.361,1.361,0,0,0-1.489-1.041V15.694H169.3q2.437,7.136,4.9,14.272c.739,2.529,1.489,3.269,2.675,3.269v1.041Zm-2.082-14.418L164.7,27.144h4.611Z" transform="translate(-143.441 -9.749)"/>
</svg>
