<svg xmlns="http://www.w3.org/2000/svg" width="200.915" height="50.244" viewBox="0 0 200.915 50.244">
  <g id="harvard-university" transform="translate(0.115 0.115)">
    <path id="Path_128" data-name="Path 128" d="M248.012,51.986c0-.425-.275-.75-.85-.85v-.275c.325,0,1.349.05,1.649.05.25,0,1.274-.05,1.574-.05v.275a.86.86,0,0,0-.8.85v5.4c0,1.7.95,2.674,2.9,2.674,1.7,0,3-.75,3-2.549V51.961c0-.4-.25-.725-.875-.85v-.275c.225,0,1.1.05,1.4.05.25,0,1.149-.05,1.4-.05v.275c-.6.15-.875.425-.875.85v5.247c0,2.349-1.374,3.7-4.323,3.7-2.749,0-4.173-1.249-4.173-3.473V51.986h-.025Zm11.794,8.5c.65-.125.9-.45.9-.85V52.185a1.018,1.018,0,0,0-.9-1.074v-.275c.325.025.875.05,1.149.05a5.432,5.432,0,0,0,.9-.05l6.472,7.6v-6.5c0-.4-.25-.725-.875-.85v-.275c.225,0,1.074.05,1.349.05.25,0,1.149-.05,1.374-.05v.275c-.625.15-.925.425-.925.85v8.946h-.4a3.43,3.43,0,0,1-1.424-1.1l-5.772-6.747v6.572c0,.4.225.725.85.85v.275c-.225,0-1.074-.05-1.349-.05-.25,0-1.124.05-1.374.05v-.25h.025Zm51.024-2.024h.275a2.369,2.369,0,0,0,.9,1.349,3.374,3.374,0,0,0,1.774.475c1.3,0,2.124-.65,2.124-1.674,0-1.049-1.049-1.6-2.324-2.224-.95-.475-2.8-1.249-2.8-3.023,0-1.674,1.274-2.7,3.3-2.7,1.349,0,1.974.325,2.874.275l-.025,2.024h-.275a2.437,2.437,0,0,0-2.624-1.6c-1.324,0-1.824.75-1.824,1.524,0,1.1,1.074,1.649,2.3,2.2,1.374.625,2.874,1.374,2.874,3.1,0,1.624-1.274,2.8-3.6,2.8a16.386,16.386,0,0,1-2.949-.475Zm29.285-2.224v3.373a.913.913,0,0,0,.825.85v.275c-.325,0-1.374-.05-1.674-.05-.25,0-1.249.05-1.624.05v-.275a.941.941,0,0,0,.85-.85V56.383m.1.275-2.624-4.223a2.753,2.753,0,0,0-1.3-1.324v-.275c.35,0,1.324.05,1.624.05.25,0,1.3-.05,1.674-.05v.275c-.325.05-.5.225-.5.475a1.9,1.9,0,0,0,.3.775c.15.25,1.949,3.223,1.949,3.223l1.874-3.223a1.922,1.922,0,0,0,.325-.85c0-.2-.125-.35-.45-.4v-.275c.325,0,.975.05,1.2.05s.975-.05,1.3-.05v.25a3.535,3.535,0,0,0-1.6,1.649l-2.4,4m-50.275-5.9h6.172a2.416,2.416,0,0,0,.725-.1h.275l-.05,2h-.275c-.225-.625-.475-1.124-1.674-1.124H292.19v3.5h2.074a3.558,3.558,0,0,0,.825-.075.9.9,0,0,0,.775-.75h.275c-.025.3-.025,1-.025,1.2s.025.925.025,1.249h-.275a1.018,1.018,0,0,0-.775-.8,3.558,3.558,0,0,0-.825-.075H292.19v4.1h2.924a1.755,1.755,0,0,0,1.949-1.274l.275.075-.275,2.049c-.95-.075-1.524-.075-2.6-.075h-3.073c-.3,0-1.374.05-1.7.05v-.275c.55-.1.875-.375.875-.925V52.011c0-.475-.25-.775-.875-.875Zm-15.767,1.2c0-.5-.3-.8-.9-.925v-.275c.325,0,1.4.05,1.724.05.25,0,1.374-.05,1.7-.05v.275c-.6.125-.9.375-.9.925v7.521c0,.5.3.775.9.9v.275c-.325,0-1.4-.05-1.7-.05-.275,0-1.374.05-1.724.05v-.275c.6-.125.9-.375.9-.9Zm46.827,0c0-.5-.3-.8-.9-.925v-.275c.325,0,1.4.05,1.724.05.275,0,1.374-.05,1.7-.05v.275c-.6.125-.9.375-.9.925v7.521c0,.5.3.775.9.9v.275c-.325,0-1.374-.05-1.7-.05-.25,0-1.374.05-1.724.05v-.275c.6-.125.9-.375.9-.9Zm8.571-1.149c-3.373,0-3.923-.075-4.623-.1v2.049h.275a1.3,1.3,0,0,1,1.4-1.124H328.5v7.871c0,.525-.3.8-.9.9v.275c.325,0,1.449-.05,1.724-.05.3,0,1.374.05,1.7.05v-.275c-.6-.125-.9-.4-.9-.9V51.711h2.1a1.321,1.321,0,0,1,1.424,1.124h.275V50.786c-.65.025-1.2.1-4.6.1m-26.986,4.648a8.814,8.814,0,0,0,1.249.075c1.849,0,2.449-1.074,2.449-2.024,0-1.349-.9-2.174-2.524-2.174a9.718,9.718,0,0,0-1.174.1Zm0,4.023c0,.5.325.775.924.9v.275c-.325,0-1.424-.05-1.724-.05-.275,0-1.324.05-1.649.05v-.275c.55-.1.875-.375.875-.9v-7.6c0-.475-.25-.775-.875-.875v-.275c.325,0,1.374.05,1.674.05.475,0,1.849-.075,2.4-.075,2.374,0,3.7.975,3.7,2.674,0,1.324-.975,2.224-2.5,2.574a3.067,3.067,0,0,1,.7.6c.425.5,1.549,2.124,2.024,2.674.475.575,1.074,1.2,1.7,1.224v.225a5.643,5.643,0,0,1-1.174.125,2.475,2.475,0,0,1-2.074-1.049c-.55-.65-1.449-2.024-2-2.724a2.241,2.241,0,0,0-1.524-.9l-.45-.075-.025,3.423Zm-23.513-7.5a1.556,1.556,0,0,0-1.124-.95v-.275c.35,0,1.574.05,1.849.05.25,0,1.3-.05,1.674-.05v.275c-.325.05-.7.25-.7.575a3.649,3.649,0,0,0,.425,1.149l2.549,5.822,2.424-5.822a3.145,3.145,0,0,0,.325-1.124c0-.3-.275-.525-.675-.6v-.275c.325,0,1.1.05,1.349.05.225,0,1.149-.05,1.5-.05v.275a1.882,1.882,0,0,0-1.3,1.274l-3.548,8.4h-.8Zm9.12-26.462a2.893,2.893,0,0,0-2.124-1.8v-.525c.675,0,2.874.075,3.373.075.475,0,2.6-.075,3.3-.075V23.8c-.6.125-1.3.45-1.3,1.074a7.1,7.1,0,0,0,.775,2.2l4.848,11.019,4.6-11.044a6.871,6.871,0,0,0,.625-2.1c0-.575-.55-.975-1.3-1.149v-.525c.6,0,2.074.075,2.549.075.425,0,2.174-.075,2.849-.075v.5a3.553,3.553,0,0,0-2.474,2.449L296.913,42.14h-1.524L287.942,25.6ZM222.7,41.516c.875-.2,1.5-.6,1.5-1.6V25.349c0-.95-.575-1.349-1.5-1.6v-.525c.45,0,2.449.075,2.949.075.55,0,2.649-.075,3.1-.075v.525c-.875.2-1.524.6-1.524,1.6v6.1h10.87v-6.1c0-1-.575-1.4-1.5-1.6v-.525c.45,0,2.5.075,3.073.075.475,0,2.524-.075,2.974-.075v.525c-.875.2-1.524.6-1.524,1.6V39.942c0,.95.625,1.349,1.524,1.6v.475c-.45,0-2.5-.05-2.974-.05-.55,0-2.6.05-3.073.05v-.475c.875-.2,1.5-.6,1.5-1.6v-6.9h-10.87v6.9c0,1,.6,1.349,1.524,1.6v.475c-.45,0-2.549-.05-3.1-.05-.475,0-2.474.05-2.949.05Zm130.41-.95a19.644,19.644,0,0,0,2.924.2c5.622,0,8.546-3.373,8.546-8.1,0-4.9-3.073-8.321-8.321-8.321a21.83,21.83,0,0,0-3.123.2V40.566Zm-4.748.95c1.124-.2,1.749-.65,1.749-1.674V25.349c0-1-.625-1.4-1.7-1.6v-.525c.625,0,2.674.075,3.248.075.925,0,3.473-.2,5.447-.2,6.672,0,10.745,3.723,10.745,9.4,0,5.522-4.223,9.6-11.119,9.6-2,0-4.348-.15-5.272-.15-.55,0-2.474.075-3.1.075v-.5ZM272.7,32.145a20.479,20.479,0,0,0,2.349.125c3.523,0,4.623-2.024,4.623-3.8,0-2.549-1.7-4.1-4.773-4.1a13.323,13.323,0,0,0-2.2.2Zm0,7.646c0,.975.625,1.5,1.749,1.724v.525c-.625,0-2.674-.075-3.248-.075-.5,0-2.5.075-3.123.075v-.525c1.049-.2,1.674-.725,1.674-1.724V25.4c0-.875-.475-1.449-1.649-1.649v-.525c.625,0,2.6.075,3.173.075.925,0,3.523-.15,4.548-.15,4.5,0,7,1.849,7,5.047,0,2.5-1.874,4.2-4.723,4.9a5.489,5.489,0,0,1,1.3,1.149c.8.925,2.974,4.073,3.873,5.147.875,1.074,2.024,2.274,3.223,2.324v.425a12.176,12.176,0,0,1-2.224.225,4.687,4.687,0,0,1-3.923-1.974c-1.025-1.249-2.8-3.9-3.823-5.2a4.34,4.34,0,0,0-2.9-1.724c-.275-.05-.55-.075-.875-.125v6.447Zm59.245-7.646a20.48,20.48,0,0,0,2.349.125c3.523,0,4.623-2.024,4.623-3.8,0-2.549-1.7-4.1-4.773-4.1a13.084,13.084,0,0,0-2.2.2Zm0,7.646c0,.975.625,1.5,1.749,1.724v.525c-.625,0-2.674-.075-3.248-.075-.5,0-2.5.075-3.123.075v-.525c1.049-.2,1.649-.725,1.649-1.724V25.4c0-.875-.475-1.449-1.649-1.649v-.525c.625,0,2.6.075,3.173.075.925,0,3.523-.15,4.548-.15,4.5,0,7,1.849,7,5.047,0,2.5-1.874,4.2-4.723,4.9a5.49,5.49,0,0,1,1.3,1.149c.8.925,3,4.073,3.873,5.147.9,1.074,2.024,2.274,3.223,2.324v.425a11.949,11.949,0,0,1-2.224.225,4.761,4.761,0,0,1-3.948-1.974c-1.024-1.249-2.8-3.9-3.823-5.2a4.34,4.34,0,0,0-2.874-1.724c-.3-.05-.55-.075-.875-.125v6.447Zm-74.513-5.3-3-6.972-2.774,6.972Zm-11.969,7.021a3.136,3.136,0,0,0,2.274-2.074l6.022-14.468a17.107,17.107,0,0,0,.55-1.824h1.674a17.1,17.1,0,0,0,.55,1.824L262.9,39.492a3.091,3.091,0,0,0,2.2,2.049v.475c-.7,0-2.824-.05-3.323-.05-.475,0-2.524.05-3.223.05v-.475c.925-.225,1.224-.7,1.224-1.149a3.382,3.382,0,0,0-.35-1.274l-1.374-3.123h-7l-1.249,3.123a3.528,3.528,0,0,0-.3,1.2c0,.525.275.95,1.324,1.224v.475c-.625,0-2.274-.05-2.649-.05l-2.724.05v-.5Zm71.589-7.021-3-6.972-2.774,6.972Zm-11.969,7.021a3.136,3.136,0,0,0,2.274-2.074l6.022-14.468a17.107,17.107,0,0,0,.55-1.824H315.6a17.107,17.107,0,0,0,.55,1.824l6.372,14.518a3.091,3.091,0,0,0,2.2,2.049v.475c-.675,0-2.824-.05-3.323-.05-.475,0-2.524.05-3.223.05v-.475c.925-.225,1.224-.7,1.224-1.149a3.382,3.382,0,0,0-.35-1.274l-1.374-3.123h-7l-1.249,3.123a3.528,3.528,0,0,0-.3,1.2c0,.525.275.95,1.324,1.224v.475c-.625,0-2.274-.05-2.649-.05l-2.724.05Z" transform="translate(-167.053 -17.328)" fill="#1d1d1b"/>
    <path id="Path_129" data-name="Path 129" d="M.3.2H42.254V16.042c0,7.271-2.7,22.664-20.815,34.108,0,0-19.64-8.2-21.139-34.108V.2Z" transform="translate(-0.225 -0.15)"/>
    <path id="Path_130" data-name="Path 130" d="M0,0H42V15.867c0,7.271-2.7,22.664-20.84,34.133,0,0-19.64-8.2-21.164-34.133V0Z" fill="none" stroke="#000" stroke-width="0.23"/>
    <path id="Path_131" data-name="Path 131" d="M35.261,36.017s-.375,1.2-2.049-.025l-5.722-.15a.619.619,0,0,1-.85-.55s.125-1.574.075-1.7c0,0,.025-.45-.725-.45,0,0-1.149.125-1.2-.875,0,0-.2-1.1,1.4-1.049,0,0,.5.225.55-.4,0,0-.075-4.423-.025-4.748,0,0,.125-.4-.65-.475,0,0-1.124.225-1.249-.5,0,0-.075-1.124.675-1.2,0,0,.925.075,1.074-.175,0,0,.2.125.175-.675l.025-1.4s.1-.375.675-.325a4.929,4.929,0,0,0,1.2-.025,4.44,4.44,0,0,0,.3-.45s.55-.025.65.1c0,0,.825.55,3.9.35,0,0,.475,0,.575.125,0,0,.575.45.925-.025a11.7,11.7,0,0,1,2.049-.075,3.473,3.473,0,0,0,2.824-.5l.375.075s.475.775.825.55c0,0,1.024-.1,1.2.1a2.822,2.822,0,0,1,.175,1.849s-.2.575.775.575c0,0,1.124-.2.975.85,0,0,.3,1.2-1.574,1.024,0,0-.25.35-.2.575,0,0-.025,3.873-.075,4.323,0,0-.025.625.775.575,0,0,1.1-.075,1.124.925,0,0,.125,1.3-1.424,1.049,0,0-.475.075-.55.375l-.075,1.7s.025.85-.925.65c-.125,0-5.3.1-5.747-.025.05-.075-.175-.1-.25.025M24.291,41.69s.25-.1.3-.275a3.055,3.055,0,0,0,.825-.175l2.249.175s2.2.175,3.148-.525a1.728,1.728,0,0,1,.575.1s.475.1.6.3l1.3-.025s.75.25.675.725v.6s-.125,1.224.2,1.3h1s.825.375.725.85a.827.827,0,0,1-.675.825,4.636,4.636,0,0,1-.95.175,1.323,1.323,0,0,0-.275.675l-.1,4.448s-.075.475.65.4c0,0,1.049-.1,1.349.475,0,0,.275.975-.275,1.149l-.4.2-.875.15s-.375.025-.4.675v1.2s.025.825-.625.825l-.95.075a.81.81,0,0,1-.725.075s-5.772.1-5.972.025l-.675.15s-.75.675-1.349.175l-.475-.375a1.3,1.3,0,0,1-.475.025c-.125-.025-6.4.075-6.4.075s-1.324.15-1.424-.3a14.608,14.608,0,0,1-.1-1.949s0-.5-.3-.55c0,0-1.324-.075-1.349-.2,0,0-.725-.5-.5-1.024a1.215,1.215,0,0,1,.95-.75s1.1.175,1.1-.125a1.708,1.708,0,0,0,.075-.55s.075-4.048.025-4.323c0,0,.1-.5-.35-.5a1.114,1.114,0,0,1-.775-.075s-.825.025-.975-.625a1.038,1.038,0,0,1,.075-.75,1.24,1.24,0,0,1,1.474-.5s.625.175.675-.275l-.025-1.624s-.15-.45.725-.675c0,0,1.1.3,1.424-.25,0,0,.375-.75.675-.25a3.389,3.389,0,0,0,2.424.55,21.4,21.4,0,0,1,3.123-.1s.75.1.95.35l.1.025Zm-9.245-5.672s-.375,1.2-2.049-.025l-5.722-.125a.619.619,0,0,1-.85-.55s.125-1.574.075-1.7c0,0,.025-.45-.725-.45,0,0-1.149.15-1.2-.875,0,0-.2-1.1,1.4-1.049,0,0,.5.225.55-.4,0,0-.075-4.423-.025-4.773,0,0,.15-.4-.65-.475,0,0-1.124.225-1.249-.5,0,0-.075-1.124.675-1.2,0,0,.925.075,1.1-.175,0,0,.2.125.175-.675l.025-1.4s.1-.375.675-.35a4.929,4.929,0,0,0,1.2-.025,4.44,4.44,0,0,0,.3-.45s.55-.025.65.1c0,0,.825.55,3.923.35,0,0,.475,0,.575.125,0,0,.575.45.925-.025A11.7,11.7,0,0,1,16.87,21.3a3.473,3.473,0,0,0,2.824-.5l.375.075s.475.775.825.55c0,0,1.024-.1,1.2.1a2.822,2.822,0,0,1,.175,1.849s-.2.575.775.575c0,0,1.124-.2.975.85,0,0,.3,1.2-1.574,1.024,0,0-.25.35-.2.575,0,0-.025,3.873-.075,4.323,0,0-.025.6.775.575,0,0,1.1-.075,1.124.925,0,0,.125,1.3-1.424,1.049,0,0-.475.075-.55.375l-.075,1.7s.025.85-.925.65c-.125,0-5.3.1-5.747-.025,0-.05-.225-.075-.3.05" transform="translate(-3.427 -15.603)" fill="#fff"/>
    <path id="Path_132" data-name="Path 132" d="M95.946,36.092s-.375,1.2-2.049-.025l-5.722-.15a.619.619,0,0,1-.85-.55s.125-1.574.075-1.7c0,0,.025-.45-.725-.45,0,0-1.149.125-1.2-.875,0,0-.2-1.1,1.4-1.049,0,0,.5.225.55-.4,0,0-.075-4.423-.025-4.748,0,0,.125-.4-.65-.475,0,0-1.124.225-1.249-.5,0,0-.075-1.124.675-1.2,0,0,.925.075,1.074-.175,0,0,.2.125.175-.675l.025-1.4s.1-.375.675-.325a4.929,4.929,0,0,0,1.2-.025,4.439,4.439,0,0,0,.3-.45s.55-.025.65.1c0,0,.825.55,3.9.35,0,0,.475,0,.575.125,0,0,.575.45.925-.025A11.7,11.7,0,0,1,97.72,21.4a3.473,3.473,0,0,0,2.824-.5l.375.075s.475.775.825.55c0,0,1.024-.1,1.2.1a2.822,2.822,0,0,1,.175,1.849s-.2.575.775.575c0,0,1.124-.2.975.85,0,0,.3,1.2-1.574,1.024,0,0-.25.35-.2.575,0,0-.025,3.873-.075,4.323,0,0-.025.625.775.575,0,0,1.1-.075,1.124.925,0,0,.125,1.3-1.424,1.049,0,0-.475.075-.55.375l-.075,1.7s.025.85-.925.65c-.125,0-5.3.1-5.747-.025.05-.075-.175-.1-.25.025" transform="translate(-64.112 -15.678)"/>
    <path id="Path_133" data-name="Path 133" d="M95.946,36.092s-.375,1.2-2.049-.025l-5.722-.15a.619.619,0,0,1-.85-.55,11.975,11.975,0,0,0,.075-1.7s.025-.45-.725-.45c0,0-1.149.125-1.2-.875,0,0-.2-1.1,1.4-1.049,0,0,.5.225.55-.4,0,0-.075-4.423-.025-4.748,0,0,.15-.4-.65-.475,0,0-1.124.225-1.249-.5,0,0-.075-1.124.675-1.2,0,0,.925.075,1.074-.175,0,0,.2.125.175-.675l.025-1.4s.1-.375.675-.325a4.929,4.929,0,0,0,1.2-.025,4.439,4.439,0,0,0,.3-.45s.55-.025.65.1c0,0,.825.55,3.9.35,0,0,.475,0,.575.125,0,0,.575.45.925-.025A11.7,11.7,0,0,1,97.72,21.4a3.473,3.473,0,0,0,2.824-.5l.375.075s.475.775.825.55c0,0,1.024-.1,1.2.1a2.822,2.822,0,0,1,.175,1.849s-.2.575.775.575c0,0,1.124-.2.975.85,0,0,.3,1.2-1.574,1.024,0,0-.25.35-.2.575,0,0-.025,3.873-.075,4.323,0,0-.025.625.775.575,0,0,1.1-.075,1.124.925,0,0,.125,1.3-1.424,1.049,0,0-.475.075-.55.375l-.075,1.7s.025.85-.925.65c-.125,0-5.3.1-5.747-.025.05-.075-.175-.1-.25.025Z" transform="translate(-64.112 -15.678)" fill="none" stroke="#000" stroke-width="0.01"/>
    <path id="Path_134" data-name="Path 134" d="M99.375,25.6s.075.675.075.85-.1,9.82-.1,9.82a1.175,1.175,0,0,1-.55,1.124s-.175.075-.2-.4L98.675,26.8c-.025,0,.05-1.249.7-1.2" transform="translate(-73.962 -19.199)" fill="#fff"/>
    <path id="Path_135" data-name="Path 135" d="M99.375,25.6s.075.675.075.85-.1,9.82-.1,9.82a1.175,1.175,0,0,1-.55,1.124s-.175.075-.2-.4L98.675,26.8c-.025,0,.05-1.249.7-1.2Z" transform="translate(-73.962 -19.199)" fill="none" stroke="#000" stroke-width="0.012"/>
    <path id="Path_136" data-name="Path 136" d="M89.7,36.8s.075-9.6.025-9.745c-.025-.175.025.15.025.15a5.221,5.221,0,0,1,.35-2.349s-.15-.575-.925.15l-.025,1.4s0,.775-.725.75a1.938,1.938,0,0,0-1.2.35s-.2.75.575.625c0,0,1.224,0,1.3.5l-.05,5.072a.62.62,0,0,1-.675.85s-1.149-.075-1.124.65c0,0,.25.6,1.224.4a.8.8,0,0,1,.675.825v1.3s-.075.525.625.55h5.3s.275.025.275-.3c0,0-.025-.275-.45-.275l-4.4-.1s-.725.25-.8-.8" transform="translate(-65.416 -18.479)" fill="#fff"/>
    <path id="Path_137" data-name="Path 137" d="M101.258,71.839s-.125.475.375.375h3.5l.95.2s.975-.25,0-.775c0,0-3.123.025-3.4-.025,0,0-.65-.175-.775-.2,0-.025-.35-.15-.65.425" transform="translate(-75.946 -53.548)" fill="#fff"/>
    <path id="Path_138" data-name="Path 138" d="M101.258,71.839s-.125.475.375.375h3.5l.95.2s.975-.25,0-.775c0,0-3.123.025-3.4-.025,0,0-.65-.175-.775-.2C101.908,71.389,101.558,71.264,101.258,71.839Z" transform="translate(-75.946 -53.548)" fill="none" stroke="#000" stroke-width="0.012"/>
    <path id="Path_139" data-name="Path 139" d="M122.723,72.566s-.65,0-.625.85a.74.74,0,0,0,.75.65.688.688,0,0,0,.55-.775s-.375-.85-.675-.725m.475-.35s.3-.35.5-.35c0,0,3.4.3,3.973-.1,0,0,.525-.1.65,0,0,0,.5.4.5.65,0,0-.025.3-.65.125,0,0-3.848.025-4.048.025.025.05-1.049.275-.925-.35" transform="translate(-91.588 -53.801)" fill="#fff"/>
    <path id="Path_140" data-name="Path 140" d="M126.47,72.216s.3-.35.5-.35c0,0,3.4.3,3.973-.1,0,0,.525-.1.65,0,0,0,.5.4.5.65,0,0-.025.3-.65.125,0,0-3.848.025-4.048.025.025.05-1.049.275-.925-.35Z" transform="translate(-94.86 -53.801)" fill="none" stroke="#000" stroke-width="0.012"/>
    <path id="Path_141" data-name="Path 141" d="M109.522,36.868s0-.275.475-.275l4.748-.025s.45.25.45-.575c0,0,.175-3.7.2-7.8,0-1.224.05-2.5.025-3.673a1.585,1.585,0,0,0-.25-.625s0-.55.575-.35c0,0,.5.025.375.825l.025,1.174s-.1.525.825.375c0,0,.925.15.95.475,0,0,.275.675-.825.625h-.775a.536.536,0,0,0-.225.625l-.1,4.923s-.075.85.75.825c0,0,.85-.025,1.024.225,0,0,.575.85-.675.775a2.827,2.827,0,0,0-.95.1,5.983,5.983,0,0,0-.25,1.774s.075.95-.65.85c0,0-4.723.075-5.172-.025,0,0-.475.15-.55-.225M103.4,23.425l-.1,10.92s-.025.5.825.6a4.9,4.9,0,0,0,1.224,0s.65-.025,2.324.025c0,0,.4.4.45-.1,0,0,.275-8.846.125-10.67,0,0-.025-.775-.625-.825a13.274,13.274,0,0,1-2.824,0l-1.024-.275c0,.025-.4.05-.375.325" transform="translate(-77.488 -17.328)" fill="#fff"/>
    <path id="Path_142" data-name="Path 142" d="M124.3,24.151s-.1,5.122-.075,5.3l-.075,4.323-.15,1.5s.2.3.375.1a5.935,5.935,0,0,1,1.774-.175s2.174.2,2.624-.15c0,0,.35.175.45-.375,0,0,.125-9.52.075-9.7a13.338,13.338,0,0,0,.075-1.5s-.025-.3-.6-.025c0,0,.075.275-3.148.175-.025,0-1.249-.025-1.324.525m5.422-.125L129.7,34.771s.275.95.725.85a2.151,2.151,0,0,0,.1-.55l.15-10.245c-.05,0-.375-1.624-.95-.8" transform="translate(-93.015 -17.505)" fill="#fff"/>
    <path id="Path_143" data-name="Path 143" d="M146.825,25.335,146.8,36.08s.275.95.725.85a2.151,2.151,0,0,0,.1-.55l.125-10.245c-.025.025-.35-1.6-.925-.8Z" transform="translate(-110.118 -18.838)" fill="none" stroke="#000" stroke-width="0.012"/>
    <path id="Path_144" data-name="Path 144" d="M60.008,37.99c-.1-.275.575-.3.575-.3l.35.075a1.052,1.052,0,0,1,.475.075.4.4,0,0,1-.175.575l-.125.45c-.025.375,0,3.6,0,3.6a2.532,2.532,0,0,0,.35.475c0,.3-.375.25-.375.25l-.975.025c-.3-.025-.2-.375-.2-.375.35-.175.45-.775.45-.775v-3.4l-.35-.675Zm-4.573.475c.025.75.025,1.774.025,1.774a.649.649,0,0,0,1.024-.2c.85-.825,0-1.574-.125-1.774-.15-.2-.825-.025-.825-.025Zm-.025,2.7-.075,1.049.3.5c.2.275-.125.475-.125.475l-1.1-.1c-.2-.1,0-.45,0-.45a.885.885,0,0,0,.3-.625l-.025-1.974.025-1.424c0-.175-.275-.475-.275-.475-.225-.025-.175-.35-.175-.35.075-.175.65-.075.65-.075h1.424c1.349.45,1.149,1.424,1.149,1.424a1.491,1.491,0,0,1-.95,1.4l-.075.55,1,1.549a.252.252,0,0,1,.125.275c-.125.375-.675,0-.675,0l-1.224-1.9c-.075-.1-.275.15-.275.15M48.339,54.356s.25-.1.3-.275a3.055,3.055,0,0,0,.825-.175l2.249.175s2.2.175,3.148-.525a1.728,1.728,0,0,1,.575.1s.475.1.6.3l1.3-.025s.75.25.675.725v.6s-.125,1.224.2,1.3h1s.825.375.725.85a.827.827,0,0,1-.675.825,4.635,4.635,0,0,1-.95.175,1.323,1.323,0,0,0-.275.675l-.1,4.448s-.075.475.65.4c0,0,1.049-.1,1.349.475,0,0,.275.975-.275,1.149l-.4.2-.875.15s-.375.025-.4.675v1.2s.025.825-.625.825l-.95.075a.81.81,0,0,1-.725.075s-5.772.1-5.972.025l-.675.15s-.75.675-1.349.175l-.475-.375a1.3,1.3,0,0,1-.475.025c-.125-.025-6.4.075-6.4.075s-1.324.15-1.424-.3a14.608,14.608,0,0,1-.1-1.949s0-.5-.3-.55c0,0-1.324-.075-1.349-.2,0,0-.725-.5-.5-1.024a1.215,1.215,0,0,1,.95-.75s1.1.175,1.1-.125a1.708,1.708,0,0,0,.075-.55s.075-4.048.025-4.323c0,0,.1-.5-.35-.5a1.114,1.114,0,0,1-.775-.075s-.825.025-.975-.625a1.038,1.038,0,0,1,.075-.75,1.24,1.24,0,0,1,1.474-.5s.625.175.675-.275l-.025-1.624s-.15-.45.725-.675c0,0,1.1.3,1.424-.25,0,0,.375-.75.675-.25a3.389,3.389,0,0,0,2.424.55,21.4,21.4,0,0,1,3.123-.1s.75.1.95.35l.1.025Z" transform="translate(-27.475 -28.269)"/>
    <path id="Path_145" data-name="Path 145" d="M48.264,101.384a.65.65,0,0,0,.3-.275,3.055,3.055,0,0,0,.825-.175l2.249.175s2.2.175,3.173-.525a1.728,1.728,0,0,1,.575.1s.475.1.6.3l1.3-.025s.75.25.675.725v.6s-.125,1.224.2,1.3h1s.825.375.725.85a.827.827,0,0,1-.675.825,4.636,4.636,0,0,1-.95.175,1.323,1.323,0,0,0-.275.675l-.1,4.448s-.075.475.65.4c0,0,1.049-.1,1.349.475,0,0,.275.975-.275,1.149l-.4.2-.925.15s-.375.025-.4.675v1.2s.025.825-.625.825l-.95.075a.844.844,0,0,1-.725.075s-5.772.1-5.972.025l-.675.15s-.75.675-1.349.175l-.475-.375a1.3,1.3,0,0,1-.475.025c-.125-.025-6.4.075-6.4.075s-1.324.125-1.424-.3a14.608,14.608,0,0,1-.1-1.949s0-.5-.3-.55c0,0-1.324-.075-1.349-.2,0,0-.725-.5-.5-1.024a1.215,1.215,0,0,1,.95-.75s1.074.175,1.074-.125a1.708,1.708,0,0,0,.075-.55s.075-4.048.025-4.323c0,0,.1-.5-.35-.5a1.114,1.114,0,0,1-.775-.075s-.825.025-.975-.625a.911.911,0,0,1,.075-.75,1.24,1.24,0,0,1,1.474-.5s.625.175.675-.275l-.025-1.624s-.125-.45.725-.675c0,0,1.1.3,1.424-.225,0,0,.375-.75.675-.25a3.389,3.389,0,0,0,2.424.55,21.52,21.52,0,0,1,3.123-.1s.75.1.95.35h.15Z" transform="translate(-27.4 -75.322)" fill="none" stroke="#000" stroke-width="0.01"/>
    <path id="Path_146" data-name="Path 146" d="M82.157,118.19a1.2,1.2,0,0,1,.675-.125c.275.075,4.248-.025,4.248-.025a6.3,6.3,0,0,0,2-.1l.4-.125a.79.79,0,0,0,.175-.475c0-.275.025-1.2.025-1.2l.1-.35s-.025-.35,0-9.42a1.466,1.466,0,0,0-.3-1.149s0-.275.125-.225c.15.025.075.025.075.025s.6-.175.7.075a2.07,2.07,0,0,1,.025,1.3s-.075,1,.45,1a.634.634,0,0,0,.6.1s.875.1.875.375a.489.489,0,0,1-.625.5l-.825.075a.627.627,0,0,0-.475.75c.075.65-.025,5.272-.025,5.272s0,.55.85.5c0,0,1.049-.025,1.049.275a.5.5,0,0,1-.475.725s-1.424-.025-1.324.375a9.022,9.022,0,0,1-.175,1.124s.15.775-.025.925c0,0-.1.45-1.024.375,0,0-5.847-.025-6.772.025.075-.05-.45-.125-.325-.6m-1.049-.65a.687.687,0,0,1,.575.65c0,.55.025.85-.3.925a.606.606,0,0,1-.8-.475.844.844,0,0,1,.525-1.1" transform="translate(-60.418 -78.734)" fill="#fff"/>
    <path id="Path_147" data-name="Path 147" d="M85.48,152.218s.6-.4.85-.35a29.32,29.32,0,0,0,4.048.025c.95-.175.375-.025.375-.025s.825,0,1.049-.3a.32.32,0,0,1,.375.175l.5.55s.05.325-.55.3c0,0-5.547,0-5.722.025.025.025-1.024.175-.925-.4" transform="translate(-64.116 -113.687)" fill="#fff"/>
    <path id="Path_148" data-name="Path 148" d="M85.48,152.218s.6-.4.85-.35a29.32,29.32,0,0,0,4.048.025c.95-.175.375-.025.375-.025s.825,0,1.049-.3a.32.32,0,0,1,.375.175l.5.55s.025.35-.55.3c0,0-5.547,0-5.722.025C86.429,152.643,85.38,152.793,85.48,152.218Z" transform="translate(-64.116 -113.687)" fill="none" stroke="#000" stroke-width="0.012"/>
    <path id="Path_149" data-name="Path 149" d="M51.35,105.9s.25,0,.2.4l-.075,10.27A1.275,1.275,0,0,1,51,117.694s-.3.375-.3-.2l.15-10.47a1.513,1.513,0,0,1,.5-1.124" transform="translate(-38.031 -79.438)" fill="#fff"/>
    <path id="Path_150" data-name="Path 150" d="M51.35,105.9s.25,0,.2.4l-.075,10.27A1.275,1.275,0,0,1,51,117.694s-.3.375-.3-.2l.15-10.47A1.513,1.513,0,0,1,51.35,105.9Z" transform="translate(-38.031 -79.438)" fill="none" stroke="#000" stroke-width="0.012"/>
    <path id="Path_151" data-name="Path 151" d="M41.793,105.375a3.7,3.7,0,0,0-.375.925l-.025,2.274s-.025,1.449,0,1.624-.025,4.448-.025,4.448-.025.825,0,1.1v1.824s-.075.825.55.6c0,0,5.972-.125,6.347-.025,0,0,.55.1.35.375,0,0,0,.25-.375.175a46.081,46.081,0,0,1-5.372.175s-1.7.1-1.8-.1c0,0-.275-.025-.275-1.024a5.952,5.952,0,0,0-.075-1.074s.075-.475-.775-.575c0,0-1.2.2-1.224-.5,0,0,.175-.5,1.324-.45,0,0,.85.125.675-.55l.1-5.022s.1-.9-.475-.925a3.866,3.866,0,0,0-.725.025s-.975,0-.925-.575a1.236,1.236,0,0,1,1.324-.475.663.663,0,0,0,.775-.725s-.025-1.724.375-1.8c0,0,.875.025.625.275" transform="translate(-29.024 -78.838)" fill="#fff"/>
    <path id="Path_152" data-name="Path 152" d="M53.259,151.2a1.75,1.75,0,0,0,1.249.475l4.623.075s.525.025.475.3c0,0-.075.4-.675.275l-5.572-.075-.625.025s-.4-.075.25-.85l.275-.225Z" transform="translate(-39.466 -113.419)" fill="#fff"/>
    <path id="Path_153" data-name="Path 153" d="M53.259,151.2a1.75,1.75,0,0,0,1.249.475l4.623.075s.5.025.475.3c0,0-.075.4-.675.275l-5.572-.05-.625.025s-.4-.075.25-.85l.275-.25Z" transform="translate(-39.466 -113.419)" fill="none" stroke="#000" stroke-width="0.012"/>
    <path id="Path_154" data-name="Path 154" d="M112.3,116.44a3.458,3.458,0,0,0,.625.9s.375.45.275-.35l.075-9.8a2.062,2.062,0,0,1,0-.875l-.4-.75s-.45-.35-.45.2l-.075,10.445-.05.225Z" transform="translate(-84.239 -79.109)" fill="#fff"/>
    <path id="Path_155" data-name="Path 155" d="M112.3,116.54a3.458,3.458,0,0,0,.625.9s.375.45.275-.35l.075-9.8a2.062,2.062,0,0,1,0-.875l-.4-.75s-.45-.35-.45.2l-.075,10.445-.05.225Z" transform="translate(-84.239 -79.184)" fill="none" stroke="#000" stroke-width="0.012"/>
    <path id="Path_156" data-name="Path 156" d="M62.147,110.1a11.668,11.668,0,0,1-.075,1.6,31.863,31.863,0,0,1-.025,3.423s-.025.35-.75.025c0,0-4.348.1-4.5-.025,0,0-1.2.025-1.3-.575,0,0,.175-4.648.075-4.823,0,0-.075-2.549,0-2.774,0,0,.1-2.349.025-2.624a2.876,2.876,0,0,0-.075-.825s0-.35.575-.125c0,0,.2.375,1.324.2a6.638,6.638,0,0,0,1.6.025,12.33,12.33,0,0,1,2.174,0,.77.77,0,0,1,.875.625l-.025,2.1.2.675.25-.175.1-.5.025-2.249a.781.781,0,0,1,.675-.475,4.2,4.2,0,0,1,1-.025,10.865,10.865,0,0,0,2.474.075,2.994,2.994,0,0,0,2.149-.45s.4.025.4.3a25.739,25.739,0,0,0,0,3.423s0,5.3-.1,5.672l.075,1.7s.075.75-1.124.825c0,0,.75.1-3.948-.025a3.9,3.9,0,0,0-1.574.35s-.175-.025-.175-.475a23.18,23.18,0,0,0,0-3.173l-.075-1.724-.25.025Z" transform="translate(-41.632 -77.413)" fill="#fff"/>
    <path id="Path_157" data-name="Path 157" d="M20.893,45.887a26.882,26.882,0,0,1,0,2.849l-.025.55a1.037,1.037,0,0,0,.35.5s.175.475-.25.45a6.589,6.589,0,0,0-1.049-.025s-.475,0,0-.6a1.37,1.37,0,0,0,.125-.85s0-2.849.075-3.023c0,0,.075-.375-.175-.475l-.4.025-.5.475s-.1.5-.35-.025v-.275l.3-.825.2-.025a2.377,2.377,0,0,0,.575.275h1.6l.575-.275s.225.025.175.35c0,0,.1.775-.35.875a.747.747,0,0,1-.4-.475c0-.025-.45-.275-.475.525m7.5-.925a1.222,1.222,0,0,0-1.324,1.3s-.15.95,1.3,1.574c0,0,1.049.5.975,1.149,0,0-.125,1.149-1.249.575,0,0-.55-.275-.5-.575,0,0-.175-.375-.375-.3,0,0-.25.075-.125,1.2,0,0,0,.45.5,0l.275.075a1.193,1.193,0,0,0,1.7-.175,1.374,1.374,0,0,0,.25-1.724,3.222,3.222,0,0,0-1.224-1.024,1.893,1.893,0,0,1-.925-.925.719.719,0,0,1,1.149-.475,2.292,2.292,0,0,0,.55.475s.275,0,.2-.625l-.075-.5s-.075-.375-.55,0c0-.025-.45.15-.55-.025m-4.673,1.524c-.025.175-.275,1.124-.275,1.124l.2.35s.55.025.75.025.25-.175.25-.35a10,10,0,0,0-.375-1.2l-.175-.2-.375.25Zm.525-2.249a.874.874,0,0,1,.275.5,39.7,39.7,0,0,1,1.249,4.423,2.656,2.656,0,0,0,.475.6c.575.2,0,.375,0,.375a3.215,3.215,0,0,1-1.024-.025c-.4-.075-.25-.2-.25-.2.175-.175.025-.85.025-.85a2.116,2.116,0,0,0-.35-.725c-.125-.075-.375.225-.375.225s-.375.125-.4,0c-.025-.15-.275-.275-.275-.275-.4,0-.575,1.024-.575,1.024.225.85,0,.725,0,.725-.2.275-.85.075-.85.075-.3-.075-.1-.3-.1-.3a.67.67,0,0,0,.475-.475c.175-.225,1.249-4.648,1.249-4.648.15-.2.225-.6.45-.45m-9.2-8.221s-.375,1.2-2.049-.025l-5.722-.125a.619.619,0,0,1-.85-.55s.125-1.574.075-1.7c0,0,.025-.45-.725-.45,0,0-1.149.15-1.2-.875,0,0-.2-1.1,1.4-1.049,0,0,.5.225.55-.4,0,0-.075-4.423-.025-4.773,0,0,.15-.4-.65-.475,0,0-1.124.225-1.249-.5,0,0-.075-1.124.675-1.2,0,0,.925.075,1.1-.175,0,0,.2.125.175-.675l.025-1.4s.1-.375.675-.35a4.929,4.929,0,0,0,1.2-.025,4.44,4.44,0,0,0,.3-.45s.55-.025.65.1c0,0,.825.55,3.923.35,0,0,.475,0,.575.125,0,0,.575.45.925-.025A11.7,11.7,0,0,1,16.87,21.3a3.473,3.473,0,0,0,2.824-.5l.375.075s.475.775.825.55c0,0,1.024-.1,1.2.1a2.822,2.822,0,0,1,.175,1.849s-.2.575.775.575c0,0,1.124-.2.975.85,0,0,.3,1.2-1.574,1.024,0,0-.25.35-.2.575,0,0-.025,3.873-.075,4.323,0,0-.025.6.775.575,0,0,1.1-.075,1.124.925,0,0,.125,1.3-1.424,1.049,0,0-.475.075-.55.375l-.075,1.7s.025.85-.925.65c-.125,0-5.3.1-5.747-.025,0-.05-.225-.075-.3.05" transform="translate(-3.427 -15.603)"/>
    <path id="Path_158" data-name="Path 158" d="M15.046,35.942s-.375,1.2-2.049-.025l-5.722-.125a.619.619,0,0,1-.85-.55,11.974,11.974,0,0,0,.075-1.7s.025-.45-.725-.45c0,0-1.149.15-1.2-.875,0,0-.2-1.1,1.4-1.049,0,0,.5.225.55-.4,0,0-.075-4.423-.025-4.773,0,0,.15-.4-.65-.475,0,0-1.124.225-1.249-.525,0,0-.075-1.124.675-1.2,0,0,.925.075,1.1-.175,0,0,.2.125.175-.675l.025-1.4s.1-.375.675-.35a4.929,4.929,0,0,0,1.2-.025,2.246,2.246,0,0,0,.3-.45s.55-.025.65.1c0,0,.825.55,3.923.35,0,0,.475,0,.575.125,0,0,.575.45.925-.025A11.7,11.7,0,0,1,16.87,21.2a3.473,3.473,0,0,0,2.824-.5l.375.075s.475.775.825.55c0,0,1.024-.1,1.2.1a2.822,2.822,0,0,1,.175,1.849s-.2.575.775.575c0,0,1.124-.2.975.85,0,0,.3,1.2-1.574,1.024,0,0-.25.35-.2.575,0,0-.025,3.873-.075,4.323,0,0-.025.6.775.575,0,0,1.1-.075,1.124.925,0,0,.125,1.3-1.424,1.049,0,0-.475.075-.55.375l-.075,1.7s.025.85-.925.65c-.125,0-5.3.1-5.747-.025a.26.26,0,0,0-.3.075Z" transform="translate(-3.427 -15.528)" fill="none" stroke="#000" stroke-width="0.01"/>
    <path id="Path_159" data-name="Path 159" d="M18.475,25.69s.075.675.075.85-.1,9.82-.1,9.82a1.175,1.175,0,0,1-.55,1.124s-.175.075-.2-.4l.075-10.195c-.025-.025.05-1.274.7-1.2" transform="translate(-13.277 -19.268)" fill="#fff"/>
    <path id="Path_160" data-name="Path 160" d="M18.4,25.6s.075.675.075.85-.125,9.845-.125,9.845a1.175,1.175,0,0,1-.55,1.124s-.175.075-.2-.4l.075-10.195c0-.025.075-1.274.725-1.224Z" transform="translate(-13.202 -19.199)" fill="none" stroke="#000" stroke-width="0.012"/>
    <path id="Path_161" data-name="Path 161" d="M8.8,36.777s.075-9.6.025-9.745c-.025-.175.025.15.025.15a5.221,5.221,0,0,1,.35-2.349s-.125-.575-.925.125l-.025,1.374s0,.775-.725.75a1.938,1.938,0,0,0-1.2.35s-.2.75.575.625c0,0,1.224,0,1.3.5L8.13,33.679a.62.62,0,0,1-.675.85s-1.149-.075-1.124.65c0,0,.25.625,1.224.4a.8.8,0,0,1,.675.825v1.3s-.075.5.6.55h5.3s.275.025.275-.3c0,0-.025-.275-.45-.275l-4.373-.1s-.725.25-.775-.8" transform="translate(-4.731 -18.462)" fill="#fff"/>
    <path id="Path_162" data-name="Path 162" d="M19.958,72.172s-.125.475.375.375h3.5l.95.2s1-.225,0-.775c0,0-3.123.025-3.4-.025,0,0-.65-.175-.775-.2-.025,0-.35-.15-.65.425" transform="translate(-14.961 -53.806)" fill="#fff"/>
    <path id="Path_163" data-name="Path 163" d="M19.958,72.172s-.125.475.375.375h3.5l.95.2s1-.225,0-.775c0,0-3.123.025-3.4-.025,0,0-.65-.175-.775-.2C20.583,71.747,20.258,71.6,19.958,72.172Z" transform="translate(-14.961 -53.806)" fill="none" stroke="#000" stroke-width="0.012"/>
    <path id="Path_164" data-name="Path 164" d="M41.323,72.941s-.65,0-.625.85a.74.74,0,0,0,.75.65.671.671,0,0,0,.55-.775s-.375-.85-.675-.725m.475-.325s.3-.35.5-.35c0,0,3.4.3,3.973-.1,0,0,.5-.1.65,0,0,0,.5.4.5.65,0,0-.025.3-.65.15,0,0-3.848.025-4.048.025.025,0-1.024.225-.925-.375" transform="translate(-30.528 -54.101)" fill="#fff"/>
    <path id="Path_165" data-name="Path 165" d="M45.08,72.616s.3-.35.5-.35c0,0,3.4.3,3.973-.1,0,0,.525-.1.65,0,0,0,.5.4.5.65,0,0-.025.3-.65.15,0,0-3.848.025-4.048.025.025,0-1.024.225-.925-.375Z" transform="translate(-33.81 -54.101)" fill="none" stroke="#000" stroke-width="0.012"/>
    <path id="Path_166" data-name="Path 166" d="M28.622,36.868s0-.275.475-.275l4.773-.025s.45.225.45-.575c0,0,.175-3.7.2-7.8,0-1.224.05-2.5.025-3.673a1.9,1.9,0,0,0-.225-.625s0-.55.575-.35c0,0,.5.025.375.825l.025,1.2s-.1.5.825.375c0,0,.925.125.95.475,0,0,.275.675-.8.625h-.775a.57.57,0,0,0-.25.625l-.1,4.923s-.075.85.75.825c0,0,.85-.025,1.024.225,0,0,.575.85-.675.775a2.827,2.827,0,0,0-.95.1,5.8,5.8,0,0,0-.225,1.774s.075.95-.65.85c0,0-4.723.075-5.172-.025-.075-.025-.55.125-.625-.25M22.5,23.425l-.1,10.92s-.025.5.825.6a4.924,4.924,0,0,0,1.224,0s.65-.025,2.3.025c0,0,.4.4.45-.1,0,0,.275-8.846.125-10.67,0,0-.025-.775-.625-.825a13.274,13.274,0,0,1-2.824,0L22.85,23.1c.025.025-.375.05-.35.325" transform="translate(-16.803 -17.328)" fill="#fff"/>
    <path id="Path_167" data-name="Path 167" d="M65.825,25.335,65.8,36.08s.275.95.725.85a2.15,2.15,0,0,0,.1-.55l.15-10.245c-.025.025-.35-1.6-.95-.8" transform="translate(-49.358 -18.838)" fill="#fff"/>
    <path id="Path_168" data-name="Path 168" d="M65.825,25.335,65.8,36.08s.275.95.725.85a2.15,2.15,0,0,0,.1-.55l.15-10.245c-.025.025-.35-1.6-.95-.8" transform="translate(-49.358 -18.838)" fill="none" stroke="#000" stroke-width="0.012"/>
    <path id="Path_169" data-name="Path 169" d="M65.825,25.335,65.8,36.08s.275.95.725.85a2.15,2.15,0,0,0,.1-.55l.15-10.245C66.75,26.16,66.425,24.535,65.825,25.335Z" transform="translate(-49.358 -18.838)" fill="none" stroke="#000" stroke-width="0.012"/>
    <path id="Path_170" data-name="Path 170" d="M43.4,24s-.1,5.122-.075,5.3l-.075,4.323-.15,1.5s.2.3.375.1a5.936,5.936,0,0,1,1.774-.175,7.513,7.513,0,0,0,2.624-.125s.35.175.45-.375c0,0,.125-9.52.075-9.7a13.026,13.026,0,0,0,.075-1.5s-.025-.3-.6-.05c0,0,.075.275-3.173.175,0,.025-1.224-.025-1.3.525" transform="translate(-32.33 -17.404)" fill="#fff"/>
    <path id="Path_171" data-name="Path 171" d="M28.01,38.058l-.3.65a28.5,28.5,0,0,1-1.149,3.973s-.075.675-.65.125c0,0-1.324-4.173-1.4-4.323l-.45-.3s-.275-.375.2-.4l1.249.025s.4.35-.125.725a19.107,19.107,0,0,0,.775,2.624s.2.775.45.2l.675-2.424-.2-.725s-.2-.35.1-.375c.025.025.725-.05.825.225m1.974.55-.025,3.6-.1.275s-.35.45-.1.475c0,0-.3.2,2.174.25,0,0,.95.175.725-1.049,0,0-.1-.45-.45.2,0,0-.1.55-1.324.375a.767.767,0,0,1-.275-.5v-1.5s-.025-.375.55-.325c0,0,.65.4.75.225,0,0,.225-.55,0-.875,0,0-.3-.025-.35.1,0,0-.2.4-.775.175a1.38,1.38,0,0,1-.1-.975s-.075-.85.5-.775c0,0,.675.125.75.35,0,0,.175.4.35-.075l-.2-.625s-.1-.25-.275-.175c0,0-1.149.175-1.3.025l-.925.1a.391.391,0,0,0,.275.5.264.264,0,0,1,.125.225" transform="translate(-17.99 -28.313)"/>
  </g>
</svg>
