<svg xmlns="http://www.w3.org/2000/svg" width="348.272" height="37" viewBox="0 0 348.272 37">
  <path id="kickstarter" d="M86.587,9.975c0-5.84-4.861-9.975-12.7-9.975C63.408,0,55.718,7.763,55.718,18.174s7.69,18.174,18.174,18.174c7.835,0,12.7-4.135,12.7-9.975,0-3.845-1.923-6.566-5.768-8.2,3.845-1.632,5.768-4.28,5.768-8.2Zm35.767-2.031A8.02,8.02,0,0,0,114.228.036a8.353,8.353,0,0,0-6.711,3.446L105.631,6.13A7.755,7.755,0,0,0,97.8,0a8.058,8.058,0,0,0-8.125,8.089v20.2A8.081,8.081,0,0,0,97.8,36.383a7.644,7.644,0,0,0,7.763-5.913l1.7,2.394a8.322,8.322,0,0,0,15.09-4.643,7.892,7.892,0,0,0-1.524-4.752L116.913,18.1l3.918-5.369a8.169,8.169,0,0,0,1.524-4.788Zm-89.634,0A8.02,8.02,0,0,0,24.594.036a8.4,8.4,0,0,0-6.711,3.446L15.925,6.13A7.743,7.743,0,0,0,8.125,0,8.058,8.058,0,0,0,0,8.089v20.2a8.081,8.081,0,0,0,8.125,8.089,7.644,7.644,0,0,0,7.763-5.913l1.7,2.394a8.277,8.277,0,0,0,6.783,3.482,8.184,8.184,0,0,0,8.343-8.125A7.893,7.893,0,0,0,31.2,23.47L27.278,18.1,31.2,12.732A8.169,8.169,0,0,0,32.72,7.944ZM124.168,28.33c0,5.332,4.5,8.633,14.075,8.633,9.4,0,14.981-4.571,14.981-11.789,0-3.664-1.814-6.2-4.534-8.633l-2.249-2c3.265-.472,5.477-2.684,5.477-5.876,0-5.4-4.317-8.633-13.422-8.633-8.924,0-14.147,4.5-14.147,11.608,0,3.664,1.886,6.13,4.607,8.633l2.176,2h-.073C127,22.236,124.168,24.594,124.168,28.33Zm-71.461-.689V8.706A8.692,8.692,0,0,0,43.965,0,8.8,8.8,0,0,0,35.15,8.706V27.677a8.779,8.779,0,0,0,17.557-.036Zm291.139-8.017a9.65,9.65,0,0,0,3.736-7.944A11.13,11.13,0,0,0,336.156.58H325.6c-5.731,0-8.851,3.083-8.851,9.032V28.657a8.269,8.269,0,0,0,8.126,8.307,7.821,7.821,0,0,0,7.581-5.441l.871,1.524A8.116,8.116,0,0,0,340.291,37a7.912,7.912,0,0,0,7.98-7.98,7.74,7.74,0,0,0-1.233-4.317l-3.192-5.078ZM314.319,7.618A6.975,6.975,0,0,0,307.39.58H294.767c-5.768,0-8.924,3.12-8.924,9.032V27.859c0,5.985,3.12,9.032,8.924,9.032H307.39a6.867,6.867,0,0,0,6.928-6.965,6.589,6.589,0,0,0-5.3-6.711,5.077,5.077,0,0,0,2.213-4.462,5,5,0,0,0-2.213-4.462,6.411,6.411,0,0,0,5.3-6.675Zm-136.827-7H161.059a7.8,7.8,0,0,0-.435,15.6V28.766a8.359,8.359,0,0,0,8.561,8.162,8.453,8.453,0,0,0,8.742-8.162V16.215a7.8,7.8,0,0,0-.435-15.6Zm89.779,36.311c5.042,0,8.778-3.7,8.778-8.162V16.215a7.8,7.8,0,0,0-.4-15.6H259.181a7.719,7.719,0,0,0-7.8,7.8,7.809,7.809,0,0,0,7.4,7.8V28.766A8.273,8.273,0,0,0,267.271,36.927Zm-76.575-.58c3.519,0,6.457-2.031,8.525-6.312,2.068,4.28,4.97,6.312,8.561,6.312,6.457,0,10.991-5.84,8.2-12.406L208.506,6.6c-1.814-4.28-4.571-6.6-9.25-6.6-4.607,0-7.364,2.358-9.25,6.6l-7.473,17.339C179.7,30.507,184.311,36.347,190.7,36.347ZM250.04,11.68A11.13,11.13,0,0,0,238.614.58H228.058c-5.659,0-8.851,3.083-8.851,9.032V28.657a8.269,8.269,0,0,0,8.126,8.307,7.821,7.821,0,0,0,7.581-5.441l.871,1.524A8.116,8.116,0,0,0,242.749,37a7.912,7.912,0,0,0,7.98-7.98A7.74,7.74,0,0,0,249.5,24.7l-3.156-5.042a9.744,9.744,0,0,0,3.7-7.98Z"/>
</svg>
