<svg id="marriott" xmlns="http://www.w3.org/2000/svg" width="66.872" height="50" viewBox="0 0 66.872 50">
  <path id="Path_176" data-name="Path 176" d="M93.274,319.565H94.3l1.77,2.771,1.742-2.771h1.029l.274,5.857H98.034l-.192-4.06-1.536,2.387h-.521l-1.55-2.332-.192,4.005H93Zm10.3,0h1.139l2.222,5.857H105.7l-.508-1.481h-2.181l-.508,1.481H101.34Zm1.3,3.457-.768-2.277-.782,2.277Zm4.39-3.457h2.222a2.436,2.436,0,0,1,.947.165,1.6,1.6,0,0,1,.617.425,1.519,1.519,0,0,1,.343.562,1.874,1.874,0,0,1-.137,1.564,1.8,1.8,0,0,1-.741.686l1.358,2.455H112.63l-1.193-2.318h-1.111v2.318h-1.07Zm2.222,2.634a.89.89,0,0,0,.658-.247.85.85,0,0,0,.233-.6.838.838,0,0,0-.247-.617.87.87,0,0,0-.645-.233h-1.166v1.7Zm4.883-2.634H118.6a2.436,2.436,0,0,1,.947.165,1.764,1.764,0,0,1,.631.425,1.519,1.519,0,0,1,.343.562,1.874,1.874,0,0,1-.137,1.564,1.8,1.8,0,0,1-.741.686L121,325.422h-1.248l-1.193-2.318h-1.111v2.318h-1.07ZM118.6,322.2a.89.89,0,0,0,.658-.247.85.85,0,0,0,.233-.6.837.837,0,0,0-.247-.617.87.87,0,0,0-.645-.233h-1.166v1.7Zm5.158-2.634h1.111v5.857h-1.111Zm6.831,6.022a2.9,2.9,0,0,1-1.193-.247,3.148,3.148,0,0,1-.96-.658,2.868,2.868,0,0,1-.645-.988,2.961,2.961,0,0,1-.233-1.207,3.26,3.26,0,0,1,.233-1.207,3.048,3.048,0,0,1,1.6-1.632,3.007,3.007,0,0,1,2.387,0,3.388,3.388,0,0,1,.974.658,2.944,2.944,0,0,1,.645.974,3.241,3.241,0,0,1,0,2.414,3.413,3.413,0,0,1-.645.988,2.783,2.783,0,0,1-.974.658A2.9,2.9,0,0,1,130.586,325.587Zm0-1.056a1.814,1.814,0,0,0,.782-.165,1.793,1.793,0,0,0,.6-.453,2.245,2.245,0,0,0,.384-.658,2.549,2.549,0,0,0,.137-.8,2.207,2.207,0,0,0-.137-.8,1.98,1.98,0,0,0-.384-.658,1.757,1.757,0,0,0-.6-.439,1.939,1.939,0,0,0-1.564,0,1.9,1.9,0,0,0-.59.439,2.244,2.244,0,0,0-.384.658,2.549,2.549,0,0,0-.137.8,2.259,2.259,0,0,0,.137.8,1.853,1.853,0,0,0,.384.658,1.742,1.742,0,0,0,.59.453A1.814,1.814,0,0,0,130.586,324.53Zm6.488-3.992h-1.989v-.974h5.075v.974h-1.989v4.883h-1.1Zm6.955,0H142.04v-.974h5.075v.974h-1.989v4.883h-1.111Z" transform="translate(-80.243 -275.587)"/>
  <g id="Group_28" data-name="Group 28">
    <path id="Path_177" data-name="Path 177" d="M42.73,38.107h9.89L36.063.59l-8.3,3.841L33.553,17.49l-2.7,6.091L20.494,0,12.112,3.649l6.735,15.075c-.014.014-.014.041-.027.055-4.156,9.506-9.259,12.112-9.753,12.3a10.57,10.57,0,0,1-3.8.713c-.412,0-.809-.027-1.207-.055L0,40.014A9.191,9.191,0,0,0,4.458,41.18,9.305,9.305,0,0,0,9.9,39.4l-.014.027s3.841-1.852,7.942-11.989c0-.014,1.509-3.251,2.318-5.309l.082-.233,7.229,16.241h9.877L32.25,26.708l2.7-6.077Z"/>
  </g>
</svg>
