<svg xmlns="http://www.w3.org/2000/svg" width="209.364" height="41" viewBox="0 0 209.364 41">
  <path id="mcafee" d="M104.725,26.644l-5.513-3.216L98.867,24a5.88,5.88,0,0,1-5.053,2.986,6.317,6.317,0,1,1,0-12.633,5.527,5.527,0,0,1,5.053,2.986l.459.574,5.513-3.216-.459-.689A12.082,12.082,0,0,0,93.929,8.384c-8.384,0-12.863,6.317-12.863,12.289a12.745,12.745,0,0,0,23.314,6.776l.345-.8Zm-.23,6.317h7.58l2.3-5.627h11.37l2.3,5.627h7.58L121.837.23h-6.776L116.9,4.594l-12.4,28.367M120,13.092l3.1,7.695h-6.2l3.1-7.695ZM138.6,32.961h6.661v-14.7h4.364v-6.2h-4.364V9.188a2.377,2.377,0,0,1,2.412-2.527,4.027,4.027,0,0,1,1.838.345l.689.345,2.756-5.972-.8-.345a13.552,13.552,0,0,0-4.134-.689,9.241,9.241,0,0,0-7.12,2.871,9.283,9.283,0,0,0-2.3,6.317v2.641h-2.986v6.2h2.871l.115,14.585ZM49.6,0V32.961h7.235V14.126l7.006,5.168,7.006-5.168V32.961H78.08V0L63.839,10.8ZM164.445,8.384c-8.384,0-12.863,6.317-12.863,12.289s4.479,12.289,12.863,12.289a13.849,13.849,0,0,0,10.221-4.938l-5.4-2.986a6.987,6.987,0,0,1-4.938,2.182,5.9,5.9,0,0,1-5.742-4.134h18.031V21.476c0-9.073-7.12-13.092-12.174-13.092ZM158.7,17.571a5.307,5.307,0,0,1,5.168-3.56,5.709,5.709,0,0,1,5.4,3.56Zm32.846-9.188c-8.384,0-12.863,6.317-12.863,12.289s4.479,12.289,12.863,12.289a13.849,13.849,0,0,0,10.221-4.938l-5.4-2.986a6.987,6.987,0,0,1-4.938,2.182,5.9,5.9,0,0,1-5.742-4.134h18.031V21.476c0-9.073-7.12-13.092-12.174-13.092Zm-5.742,9.3a5.307,5.307,0,0,1,5.168-3.56,5.709,5.709,0,0,1,5.4,3.56H185.806Zm17-10.451h2.756V7.81h-1.148V10.8h-.574V7.81h-1.148V7.235Zm3.216,0h.8l.919,2.756.919-2.756h.8v3.445h-.345V8.039l-.919,2.641h-.459l-1.148-2.641v2.641h-.574ZM7.45,28.022V11.37L17.9,16.308V8.269L.1,0V32.731L17.9,41V32.961Zm21.017,0V11.37L17.9,16.308V8.269L35.7,0V32.731L17.9,41V32.961Z" transform="translate(-0.1)"/>
</svg>
