<svg xmlns="http://www.w3.org/2000/svg" width="209.419" height="41" viewBox="0 0 209.419 41">
  <path id="medium" d="M105.734,36.414c0,.7,0,.863.486,1.349l2.751,2.7v.108H96.779V35.389A8.5,8.5,0,0,1,88.687,41C82.43,41,77.9,36.09,77.9,27.027c0-8.47,4.909-14.134,11.76-14.134a7.128,7.128,0,0,1,7.067,4.37V5.88a1.4,1.4,0,0,0-.539-1.4L93.6,1.942V1.888L105.734.432ZM96.779,34.8V17.8a4.66,4.66,0,0,0-3.614-1.726c-2.967,0-5.826,2.7-5.826,10.681,0,7.5,2.482,10.142,5.556,10.142a5.153,5.153,0,0,0,3.884-2.1Zm16.993,5.772V17.586a1.68,1.68,0,0,0-.486-1.4l-2.7-2.805v-.108h12.192v23.3c0,.7,0,.863.486,1.349l2.7,2.535v.108Zm-.432-35.658a4.909,4.909,0,1,1,4.909,4.909A4.927,4.927,0,0,1,113.341,4.909ZM155.635,36.36a1.486,1.486,0,0,0,.486,1.4l2.751,2.7v.108H146.626v-5.88A8.822,8.822,0,0,1,138.264,41c-5.449,0-8.308-3.992-8.308-11.491,0-3.614,0-7.606.108-12.03a1.434,1.434,0,0,0-.486-1.349l-2.7-2.7v-.108h12.084v15c0,4.909.7,8.2,3.776,8.2a4.811,4.811,0,0,0,3.938-2.482V17.586a1.68,1.68,0,0,0-.486-1.4l-2.7-2.805v-.108h12.192V36.36Zm41.431,4.208c0-.863.162-12.192.162-14.781,0-4.909-.755-8.308-4.208-8.308a5.375,5.375,0,0,0-4.316,2.374,22.719,22.719,0,0,1,.486,4.693c0,3.4-.108,7.768-.162,12.084a1.434,1.434,0,0,0,.486,1.349l2.751,2.535v.108h-12.3c0-.809.162-12.192.162-14.781,0-5.017-.755-8.308-4.154-8.308a4.887,4.887,0,0,0-4.046,2.428V36.683c0,.7,0,.863.486,1.349l2.7,2.535v.108H162.917V17.694a1.68,1.68,0,0,0-.486-1.4l-2.7-2.859v-.108h12.192v5.826a8.764,8.764,0,0,1,8.739-6.258c4.046,0,6.8,2.266,7.984,6.581a9.571,9.571,0,0,1,9.171-6.581c5.449,0,8.523,3.992,8.523,11.6,0,3.614-.108,7.768-.162,12.084a1.319,1.319,0,0,0,.539,1.349l2.7,2.535v.108H197.065ZM44.128,37.007l3.614,3.453v.108H29.4V40.46l3.668-3.453a1.391,1.391,0,0,0,.486-1.349V13.54a23.536,23.536,0,0,1,.162-3.291L21.417,41h-.162L8.47,12.731c-.27-.7-.378-.755-.539-1.241V30.048a6.436,6.436,0,0,0,.593,3.614l5.125,6.8v.108H0V40.46l5.125-6.8a6.436,6.436,0,0,0,.593-3.614V9.548a3.8,3.8,0,0,0-.863-2.805L1.241,2V1.888H14.3L25.247,25.84,34.9,1.888H47.688V2L44.074,5.988a1.4,1.4,0,0,0-.539,1.4V35.658a1.515,1.515,0,0,0,.593,1.349Zm14.35-11.113V26c0,7.013,3.614,9.818,7.822,9.818a8.872,8.872,0,0,0,8.308-5.071h.108C73.259,37.708,69,41,62.578,41c-6.905,0-13.433-4.208-13.433-13.864,0-10.2,6.527-14.242,13.756-14.242,5.826,0,12.03,2.751,12.03,11.6v1.4H58.478Zm0-1.4h8.038v-1.4c0-7.229-1.51-9.117-3.722-9.117C60.1,13.918,58.424,16.777,58.478,24.492Z"/>
</svg>
