<svg xmlns="http://www.w3.org/2000/svg" width="90.105" height="47" viewBox="0 0 90.105 47">
  <g id="nike" transform="translate(0.04)">
    <path id="Path_120" data-name="Path 120" d="M103.422,24.438H97.2l.707-10.82-4.031,10.82H88.1L97.257,0h6.151L102.7,10.958,106.816,0h5.763Zm.748,0L113.328,0H119.1l-9.157,24.438Z" transform="translate(-75.929)"/>
    <path id="Path_121" data-name="Path 121" d="M11.506,106.606c-8.077,9.476-15.682,22.083-8.963,27.888,6.511,5.625,14.657,2.3,20.213.069s66.928-28.871,66.928-28.871c.6-.291.485-.665-.263-.485-.3.069-66.817,18.107-66.817,18.107C14.166,125.683,4.538,120.515,11.506,106.606Z" transform="translate(0 -90.591)"/>
    <path id="Path_122" data-name="Path 122" d="M287.46,4.073,289.012,0H271.39l-6.054,7.329L268.134,0h-5.846L253.2,24.438h5.777l3.879-10.21.263,10.21,17.719-.042,1.69-4.7H275.8l2.217-5.929h5.555l1.7-4.558h-5.555l1.9-5.14h5.846ZM268.855,22.8l-.374-12.732L277.209.485Z" transform="translate(-218.156)"/>
  </g>
</svg>
