<svg xmlns="http://www.w3.org/2000/svg" width="169.648" height="33" viewBox="0 0 169.648 33">
  <path id="politico" d="M4.712,19.471V32.379H0V.621H5.327a27.815,27.815,0,0,1,5.942.615,8.2,8.2,0,0,1,3.688,2.049,8.655,8.655,0,0,1,2.664,6.761,8.987,8.987,0,0,1-2.868,6.966,12.609,12.609,0,0,1-7.786,2.459Zm0-4.508H6.556c4.3,0,6.556-1.639,6.556-5.122S10.859,5.129,6.352,5.129H4.712ZM19.26,16.193A15.506,15.506,0,0,1,24.177,4.719,16.592,16.592,0,0,1,35.856.007,15.955,15.955,0,0,1,47.534,4.924,16.317,16.317,0,0,1,52.452,16.4a15.188,15.188,0,0,1-4.917,11.474,16.746,16.746,0,0,1-22.743.615A15.137,15.137,0,0,1,19.26,16.193Zm4.917,0A11.285,11.285,0,0,0,27.66,24.8a11.624,11.624,0,0,0,16.391,0,11.955,11.955,0,0,0,3.483-8.4A12.7,12.7,0,0,0,44.256,8a11.6,11.6,0,0,0-8.4-3.483A11.955,11.955,0,0,0,27.455,8,10.805,10.805,0,0,0,24.177,16.193ZM59.828.621V27.667h9.22v4.508H54.91V.621Zm17.416,0V32.174H72.531V.621ZM92.61,5.129V32.174H87.9V5.129H80.726V.621h19.26V5.129H92.61ZM107.977.621V32.174h-4.712V.621ZM135.842,2.26V8a14.108,14.108,0,0,0-8.605-3.483A11.144,11.144,0,0,0,119.041,8a12.7,12.7,0,0,0-3.278,8.4,12.7,12.7,0,0,0,3.278,8.4,11.144,11.144,0,0,0,8.2,3.483,10.7,10.7,0,0,0,4.3-.82,6.409,6.409,0,0,0,2.049-1.024c.82-.615,1.434-1.024,2.254-1.639v5.737a16.127,16.127,0,0,1-8.605,2.459,16.592,16.592,0,0,1-11.679-4.712,15.311,15.311,0,0,1-4.712-11.474,15.755,15.755,0,0,1,4.1-10.654,15.071,15.071,0,0,1,12.7-6.147,16.426,16.426,0,0,1,8.2,2.254Zm.82,13.932a16.115,16.115,0,0,1,4.712-11.474A16.723,16.723,0,0,1,153.257.007a15.955,15.955,0,0,1,11.679,4.917A15.772,15.772,0,0,1,169.648,16.4a15.188,15.188,0,0,1-4.917,11.474,16.746,16.746,0,0,1-22.743.615,15.583,15.583,0,0,1-5.327-12.293Zm4.712.2A11.285,11.285,0,0,0,144.857,25a11.624,11.624,0,0,0,16.391,0,11.285,11.285,0,0,0,3.483-8.605A11.955,11.955,0,0,0,161.248,8a11.144,11.144,0,0,0-8.2-3.483A11.955,11.955,0,0,0,144.652,8,12.7,12.7,0,0,0,141.374,16.4Z" transform="translate(0 0.006)"/>
</svg>
