<svg id="shopify" xmlns="http://www.w3.org/2000/svg" width="175.196" height="50" viewBox="0 0 175.196 50">
  <path id="Path_174" data-name="Path 174" d="M80.241,18.036c-.2,0-3.925-.275-3.925-.275s-2.59-2.59-2.9-2.865a.748.748,0,0,0-.392-.2L70.9,57.793l15.11-3.257s-5.3-35.832-5.338-36.068a.461.461,0,0,0-.432-.432Z" transform="translate(-43.074 -8.931)"/>
  <path id="Path_175" data-name="Path 175" d="M37.6,9.5a.457.457,0,0,0-.432-.392c-.2,0-3.925-.275-3.925-.275s-2.59-2.59-2.9-2.865a1.164,1.164,0,0,0-1.06-.118c-.039,0-.589.157-1.452.432-.863-2.512-2.394-4.827-5.1-4.827h-.235A3.3,3.3,0,0,0,19.937,0c-6.319,0-9.3,7.889-10.243,11.892-2.433.746-4.2,1.3-4.4,1.374-1.374.432-1.413.471-1.57,1.766C3.611,16.013,0,43.642,0,43.642l27.865,5.22L42.975,45.6C42.936,45.565,37.637,9.733,37.6,9.5ZM22.253,7.692v.275c-1.531.471-3.218.981-4.867,1.491.942-3.611,2.708-5.338,4.239-6a11.608,11.608,0,0,1,.628,4.239Zm-2.473-6a1.383,1.383,0,0,1,.824.275c-2,.942-4.2,3.336-5.1,8.124-1.334.432-2.63.824-3.846,1.177,1.06-3.65,3.571-9.576,8.124-9.576Zm1.06,21.272a8.685,8.685,0,0,0-3.611-.863c-2.943,0-3.061,1.845-3.061,2.316,0,2.512,6.593,3.493,6.593,9.419,0,4.67-2.943,7.653-6.947,7.653A9.61,9.61,0,0,1,6.593,38.5l1.3-4.239s2.512,2.159,4.631,2.159a1.893,1.893,0,0,0,1.962-1.884c0-3.3-5.416-3.454-5.416-8.87,0-4.553,3.257-8.987,9.89-8.987a8.532,8.532,0,0,1,3.768.746L20.84,22.959Zm3.1-15.5v-.51a12.428,12.428,0,0,0-.549-3.807c1.374.157,2.316,1.766,2.9,3.571-.706.235-1.491.471-2.355.746ZM60.518,27.826c-1.491-.824-2.276-1.491-2.276-2.433,0-1.217,1.06-1.962,2.747-1.962a9.632,9.632,0,0,1,3.689.824l1.374-4.2s-1.256-.981-4.984-.981c-5.181,0-8.791,2.983-8.791,7.143,0,2.355,1.688,4.16,3.925,5.455,1.805,1.02,2.433,1.766,2.433,2.826,0,1.138-.9,2.041-2.59,2.041a11.534,11.534,0,0,1-4.867-1.3l-1.452,4.2a11.326,11.326,0,0,0,5.848,1.452c5.338,0,9.144-2.63,9.144-7.339.078-2.59-1.845-4.4-4.2-5.73Zm21.272-8.87A8.074,8.074,0,0,0,75.51,22.1l-.078-.039,2.276-11.931H71.782L66.013,40.463h5.926L73.9,30.1c.785-3.925,2.786-6.319,4.67-6.319,1.334,0,1.845.9,1.845,2.2a11.974,11.974,0,0,1-.275,2.63L77.9,40.5H83.83l2.316-12.245a20.614,20.614,0,0,0,.432-3.885c.078-3.375-1.688-5.416-4.788-5.416Zm18.289,0c-7.143,0-11.892,6.436-11.892,13.619,0,4.592,2.826,8.32,8.163,8.32,7.025,0,11.735-6.279,11.735-13.619C108.124,23,105.612,18.956,100.078,18.956ZM97.135,36.342c-2.041,0-2.865-1.727-2.865-3.885,0-3.414,1.766-8.948,4.984-8.948,2.119,0,2.786,1.805,2.786,3.571C102.041,30.73,100.275,36.342,97.135,36.342Zm26.177-17.386c-4,0-6.279,3.532-6.279,3.532h-.078l.353-3.179h-5.259c-.275,2.159-.746,5.416-1.217,7.889L106.711,48.94h5.926l1.648-8.791h.118a6.852,6.852,0,0,0,3.493.785c6.986,0,11.538-7.143,11.538-14.364-.039-4.042-1.805-7.614-6.122-7.614Zm-5.691,17.465a3.715,3.715,0,0,1-2.433-.863l.981-5.534c.706-3.689,2.63-6.162,4.67-6.162,1.805,0,2.355,1.688,2.355,3.257.039,3.846-2.276,9.3-5.573,9.3ZM137.873,10.44a3.4,3.4,0,0,0-3.414,3.454,2.734,2.734,0,0,0,2.786,2.983h.079a3.368,3.368,0,0,0,3.493-3.454A2.791,2.791,0,0,0,137.873,10.44Zm-8.281,30.024h5.926l4.042-21.036h-5.965ZM154.67,19.388h-4.121l.2-.981c.353-2.041,1.531-3.846,3.532-3.846a5.849,5.849,0,0,1,1.884.314l1.177-4.631a7.824,7.824,0,0,0-3.218-.51,8.829,8.829,0,0,0-5.808,1.962,11.149,11.149,0,0,0-3.454,6.711l-.157.981h-2.747l-.863,4.474h2.747l-3.14,16.6h5.926l3.14-16.6h4.082l.824-4.474Zm14.286.039s-3.728,9.341-5.377,14.443H163.5c-.118-1.648-1.452-14.443-1.452-14.443h-6.24l3.571,19.309a1.325,1.325,0,0,1-.118.981,10.3,10.3,0,0,1-3.218,3.571,12.709,12.709,0,0,1-3.336,1.688L154.356,50a13.892,13.892,0,0,0,5.808-3.218c2.708-2.551,5.22-6.436,7.771-11.774L175.2,19.427h-6.24Z"/>
</svg>
