<svg id="target" xmlns="http://www.w3.org/2000/svg" width="39.268" height="50" viewBox="0 0 39.268 50">
  <path id="Path_217" data-name="Path 217" d="M22.353,32.438A12.98,12.98,0,1,1,35.328,19.463,12.983,12.983,0,0,1,22.353,32.438M22.353,0A19.458,19.458,0,1,0,41.826,19.463,19.457,19.457,0,0,0,22.353,0Z" transform="translate(-2.608)"/>
  <path id="Path_218" data-name="Path 218" d="M19.745,127.2a6.669,6.669,0,1,0,6.679,6.669,6.664,6.664,0,0,0-6.679-6.669m-17.6,31.2H0v-1.328H5.864V158.4H3.722v5.834H2.142V158.4m3.038,5.834H6.769l.563-1.6h2.676l.543,1.6h1.629l-2.676-7.162H7.9L5.18,164.235m3.5-5.4H8.7l.905,2.625H7.755Zm4.134,5.4h1.569v-2.8h1.569c.795,0,1.086.332,1.2,1.086a7.942,7.942,0,0,0,.251,1.72H18.97a3.923,3.923,0,0,1-.3-1.7c-.05-.724-.272-1.479-1.046-1.67v-.02a1.762,1.762,0,0,0,1.137-1.79,1.963,1.963,0,0,0-2.092-1.971H12.8l.01,7.141m1.569-5.934H16.1c.7,0,1.086.3,1.086,1,0,.724-.382,1.026-1.086,1.026h-1.72V158.3Zm10.642,5.12a2.426,2.426,0,0,1-1.961.986,3.759,3.759,0,0,1,0-7.5,2.882,2.882,0,0,1,3.017,2.525H24.573a1.472,1.472,0,0,0-1.519-1.207c-1.418,0-1.941,1.207-1.941,2.454,0,1.2.533,2.394,1.941,2.394a1.547,1.547,0,0,0,1.7-1.549H23.174v-1.177h3.007v3.872H25.176l-.151-.795m2.233-6.347h5.351V158.4H28.837v1.529h3.47v1.227h-3.47v1.75H32.7v1.328H27.258v-7.162m8.288,1.328H33.394v-1.328h5.874V158.4H37.115v5.834H35.546V158.4" transform="translate(0 -114.406)"/>
</svg>
