<svg id="tc" xmlns="http://www.w3.org/2000/svg" width="258.03" height="37" viewBox="0 0 258.03 37">
  <path id="Path_172" data-name="Path 172" d="M48.174,0H72.262V12.416H48.174ZM0,0V12.416H12.168V37H24.087V12.416H36.255V0Z"/>
  <path id="Path_173" data-name="Path 173" d="M14.6,31.957H50.855V19.541H26.519V7.373H14.6ZM81.647,4.393H63.768V9.36h5.96V25.5h5.96V9.36h5.96ZM88.1,9.36c-4.221,0-7.2,2.732-7.2,8.195,0,4.966,2.732,8.195,7.45,8.195a13.889,13.889,0,0,0,6.456-1.738l-1.987-3.477A9.153,9.153,0,0,1,88.6,21.776a2.535,2.535,0,0,1-2.732-2.483H95.3V18.3c0-6.208-2.732-8.94-7.2-8.94Zm-2.235,6.456c.248-1.49.993-2.483,2.235-2.483,1.49,0,2.235.745,2.483,2.483Zm19.866,5.711q-2.235,0-2.235-3.725c0-2.483.745-3.973,1.987-3.973s1.738.745,2.483,1.987l3.725-2.98c-1.49-2.235-3.228-3.725-6.208-3.725-4.966,0-7.45,3.477-7.45,8.195,0,5.463,2.732,8.443,7.45,8.443,2.732,0,4.47-.993,6.456-3.725l-3.477-2.732c-.993,1.49-1.738,2.235-2.732,2.235ZM124.358,9.36a5.858,5.858,0,0,0-3.973,1.49V3.4l-5.463,2.235V25.5h5.463v-8.94c0-1.987.745-2.483,1.738-2.483,1.242,0,1.738.5,1.738,2.483V25.5h5.463V15.816c.248-4.221-1.49-6.456-4.966-6.456Zm18.376,11.423c-2.483,0-3.477-2.483-3.477-5.711,0-3.477.993-5.711,3.477-5.711,1.987,0,2.732,1.242,3.477,3.228l5.215-2.235c-1.49-3.973-3.477-6.208-8.691-6.208-5.711,0-9.685,4.221-9.685,10.926,0,6.208,3.477,10.926,9.685,10.926a8.881,8.881,0,0,0,8.691-5.463L146.459,17.8C145.217,19.789,144.472,20.783,142.734,20.783Zm17.383-9.933V9.608h-5.463V25.5h5.463V16.809c0-1.987.745-2.483,2.235-2.483a3.448,3.448,0,0,1,2.483,1.242l1.242-5.711a4.2,4.2,0,0,0-2.483-.745,5.833,5.833,0,0,0-3.477,1.738ZM177.748,18.8c0,1.987-.745,2.483-1.738,2.483-1.242,0-1.738-.5-1.738-2.483V9.608h-5.463v9.685c0,4.221,1.738,6.456,5.215,6.456A6.4,6.4,0,0,0,178,24.259v.993h5.463V9.608H178V18.8h-.248ZM196.62,9.36a5.858,5.858,0,0,0-3.973,1.49V9.608h-5.463V25.5h5.463v-8.94c0-1.987.745-2.483,1.738-2.483,1.242,0,1.738.5,1.738,2.483V25.5h5.711V15.816c0-4.221-1.738-6.456-5.215-6.456Zm16.141,12.168q-2.235,0-2.235-3.725c0-2.483.745-3.973,1.987-3.973s1.738.745,2.483,1.987l3.725-2.98c-1.49-2.235-3.228-3.725-6.208-3.725-4.966,0-7.45,3.477-7.45,8.195,0,5.463,2.732,8.443,7.45,8.443,2.732,0,4.47-.993,6.456-3.725l-3.477-2.732c-.993,1.49-1.738,2.235-2.732,2.235ZM231.385,9.36a5.858,5.858,0,0,0-3.973,1.49V3.4l-5.463,2.235V25.5h5.463v-8.94c0-1.987.745-2.483,1.738-2.483,1.242,0,1.738.5,1.738,2.483V25.5h5.463V15.816c.248-4.221-1.49-6.456-4.966-6.456Z" transform="translate(21.655 5.043)"/>
</svg>
