<svg xmlns="http://www.w3.org/2000/svg" width="56.572" height="46" viewBox="0 0 56.572 46">
  <path id="twitter" d="M17.771,46C39.118,46,50.8,28.3,50.8,12.971c0-.5,0-1-.023-1.494a23.649,23.649,0,0,0,5.8-6.022,23.527,23.527,0,0,1-6.678,1.834A11.679,11.679,0,0,0,55.01.86a23.091,23.091,0,0,1-7.38,2.807,11.611,11.611,0,0,0-20.08,7.946,12.83,12.83,0,0,0,.294,2.649A32.964,32.964,0,0,1,3.916,2.128a11.655,11.655,0,0,0,3.6,15.507,11.742,11.742,0,0,1-5.252-1.449v.158a11.633,11.633,0,0,0,9.3,11.387,11.676,11.676,0,0,1-5.229.2,11.608,11.608,0,0,0,10.844,8.059,23.282,23.282,0,0,1-14.42,4.98A22.339,22.339,0,0,1,0,40.816,33.02,33.02,0,0,0,17.771,46" fill="#0f0f09"/>
</svg>
